<?xml version="1.0" encoding="utf-8"?>
<!-- Generator: Adobe Illustrator 19.0.0, SVG Export Plug-In . SVG Version: 6.00 Build 0)  -->
<svg version="1.1" id="Layer_1" xmlns="http://www.w3.org/2000/svg" xmlns:xlink="http://www.w3.org/1999/xlink" x="0px" y="0px"
	 viewBox="0 0 465.4 210.3" style="enable-background:new 0 0 465.4 210.3;" xml:space="preserve">
<style type="text/css">
	.st0{fill:#FFFFFF;}
</style>
<g id="XMLID_53_">
	<g id="XMLID_2_">
		<g id="XMLID_5_">
			<path id="XMLID_6_" class="st0" d="M170.6,13H150v57.2h-8.4V13H121V6.1h49.6V13z"/>
		</g>
		<g id="XMLID_8_">
			<path id="XMLID_9_" class="st0" d="M203.7,44.3h-15.1v26h-8.5V6.1h21.2c7.2,0,12.8,1.6,16.7,4.9c3.9,3.3,5.8,8.1,5.8,14.4
				c0,4-1.1,7.5-3.2,10.4c-2.2,3-5.2,5.2-9,6.7l15.1,27.2v0.5h-9.1L203.7,44.3z M188.6,37.3h13c4.2,0,7.5-1.1,10-3.3
				c2.5-2.2,3.7-5.1,3.7-8.7c0-4-1.2-7-3.5-9.1c-2.4-2.1-5.8-3.2-10.2-3.2h-13V37.3z"/>
		</g>
		<g id="XMLID_12_">
			<path id="XMLID_13_" class="st0" d="M272,40.6h-27.8v22.7h32.3v6.9h-40.8V6.1h40.3V13h-31.9v20.7H272V40.6z"/>
		</g>
		<g id="XMLID_15_">
			<path id="XMLID_16_" class="st0" d="M323.3,40.6h-27.8v22.7h32.3v6.9H287V6.1h40.3V13h-31.9v20.7h27.8V40.6z"/>
		</g>
		<g id="XMLID_18_">
			<path id="XMLID_19_" class="st0" d="M383.5,13h-20.6v57.2h-8.4V13h-20.6V6.1h49.6V13z"/>
		</g>
		<g id="XMLID_21_">
			<path id="XMLID_22_" class="st0" d="M75.4,157.2c-0.5,6.9-3,12.3-7.6,16.3c-4.6,4-10.7,5.9-18.2,5.9c-8.2,0-14.7-2.8-19.4-8.3
				c-4.7-5.5-7.1-13.1-7.1-22.8v-3.9c0-6.2,1.1-11.6,3.3-16.3c2.2-4.7,5.3-8.3,9.3-10.8c4-2.5,8.7-3.8,14.1-3.8
				c7.4,0,13.4,2,17.9,5.9c4.5,4,7.1,9.5,7.8,16.7H62.3c-0.3-4.1-1.5-7.1-3.5-9c-2-1.9-5-2.8-9.1-2.8c-4.4,0-7.7,1.6-9.9,4.7
				c-2.2,3.2-3.3,8.1-3.4,14.7v4.8c0,6.9,1.1,12,3.2,15.2c2.1,3.2,5.4,4.8,9.9,4.8c4.1,0,7.1-0.9,9.1-2.8c2-1.9,3.2-4.8,3.5-8.7
				H75.4z"/>
		</g>
		<g id="XMLID_24_">
			<path id="XMLID_25_" class="st0" d="M136.8,147.9c0,6.3-1.1,11.9-3.3,16.6c-2.2,4.8-5.4,8.4-9.6,11c-4.2,2.6-8.9,3.9-14.3,3.9
				c-5.3,0-10.1-1.3-14.2-3.8c-4.2-2.6-7.4-6.2-9.7-11c-2.3-4.7-3.5-10.2-3.5-16.4v-3.2c0-6.3,1.1-11.9,3.4-16.7
				c2.3-4.8,5.5-8.5,9.7-11.1c4.2-2.6,8.9-3.9,14.3-3.9c5.3,0,10.1,1.3,14.3,3.9c4.2,2.6,7.4,6.3,9.7,11.1
				c2.3,4.8,3.4,10.4,3.4,16.6V147.9z M123.4,145c0-6.7-1.2-11.8-3.6-15.3c-2.4-3.5-5.8-5.2-10.3-5.2c-4.4,0-7.9,1.7-10.3,5.2
				c-2.4,3.5-3.6,8.5-3.7,15.2v3.1c0,6.6,1.2,11.6,3.6,15.2c2.4,3.6,5.9,5.4,10.4,5.4c4.4,0,7.8-1.7,10.2-5.2
				c2.4-3.5,3.6-8.6,3.6-15.2V145z"/>
		</g>
		<g id="XMLID_28_">
			<path id="XMLID_29_" class="st0" d="M198.6,178.5h-13.2l-25.7-42.2v42.2h-13.2v-64.2h13.2l25.8,42.3v-42.3h13.2V178.5z"/>
		</g>
		<g id="XMLID_31_">
			<path id="XMLID_32_" class="st0" d="M262.3,178.5h-13.2l-25.7-42.2v42.2h-13.2v-64.2h13.2l25.8,42.3v-42.3h13.2V178.5z"/>
		</g>
		<g id="XMLID_34_">
			<path id="XMLID_35_" class="st0" d="M312.5,150.6h-25.4v17.3h29.8v10.6h-43v-64.2h42.9v10.7h-29.7v15.3h25.4V150.6z"/>
		</g>
		<g id="XMLID_37_">
			<path id="XMLID_38_" class="st0" d="M375,157.2c-0.5,6.9-3,12.3-7.6,16.3c-4.6,4-10.7,5.9-18.2,5.9c-8.2,0-14.7-2.8-19.4-8.3
				c-4.7-5.5-7.1-13.1-7.1-22.8v-3.9c0-6.2,1.1-11.6,3.3-16.3c2.2-4.7,5.3-8.3,9.3-10.8c4-2.5,8.7-3.8,14.1-3.8
				c7.4,0,13.4,2,17.9,5.9c4.5,4,7.1,9.5,7.8,16.7h-13.2c-0.3-4.1-1.5-7.1-3.5-9s-5-2.8-9.1-2.8c-4.4,0-7.7,1.6-9.9,4.7
				c-2.2,3.2-3.3,8.1-3.4,14.7v4.8c0,6.9,1.1,12,3.2,15.2c2.1,3.2,5.4,4.8,9.9,4.8c4.1,0,7.1-0.9,9.1-2.8c2-1.9,3.2-4.8,3.5-8.7H375
				z"/>
		</g>
		<g id="XMLID_41_">
			<path id="XMLID_42_" class="st0" d="M430.7,125.1H411v53.5h-13.2v-53.5h-19.4v-10.7h52.3V125.1z"/>
		</g>
	</g>
	<g id="XMLID_44_">
		<path id="XMLID_54_" class="st0" d="M445,209.6H16.3C2.1,209.6,0,201.2,0,196.4V78c0-4.8,1.4-8.5,4.1-11.1c5-4.7,13-4.3,19.5-4
			c1.6,0.1,3.1,0.2,4.5,0.2l65.7,0c1.1,0,11.4-0.1,13.8-11c2.2-9.7-10.9-15.1-24.4-19.7l-1.3-0.5c-6.8-2.4-10.6-9.7-9-17.4
			c1.6-7.8,8.9-15.4,21.5-14.5c10.6,0.8,16.5,11.5,18.7,15.5c0.2,0.4,0.5,0.8,0.6,1l-5.9,4.3c-0.3-0.4-0.6-0.9-1-1.7
			c-1.7-3.1-6.2-11.3-12.8-11.8c-8.7-0.6-12.8,4-13.8,8.6c-0.7,3.4,0.3,7.6,4.3,9l1.3,0.4c12.4,4.2,33.1,11.4,29.2,28.4
			c-3.1,13.6-15.1,16.8-21.1,16.8H28.1c-1.5,0-3.2-0.2-4.9-0.3c-5.4-0.3-11.6-0.6-14.3,1.9c-1.2,1.2-2,3-2,5.7v118.4
			c0,1.9,0.3,5.2,9.3,5.2H445V209.6z"/>
	</g>
	<g id="XMLID_45_">
		<g id="XMLID_46_">
			<path id="XMLID_97_" class="st0" d="M463.9,209.9H446c-0.8,0-1.5-0.7-1.5-1.5v-5.9c0-0.8,0.7-1.5,1.5-1.5h17.9
				c0.8,0,1.5,0.7,1.5,1.5v5.9C465.4,209.2,464.7,209.9,463.9,209.9z"/>
		</g>
		<g id="XMLID_47_">
			<path id="XMLID_95_" class="st0" d="M462.9,210.3h2.1c0.3,0,0.5-0.2,0.5-0.5v-8.3c0-0.3-0.2-0.5-0.5-0.5h-2.1
				c-0.3,0-0.5,0.2-0.5,0.5v8.3C462.4,210,462.6,210.3,462.9,210.3z"/>
		</g>
		<g id="XMLID_48_">
			<path id="XMLID_93_" class="st0" d="M463.7,203.1l1.5-1.5c0.2-0.2,0.2-0.5,0-0.7l-5.8-5.8c-0.2-0.2-0.5-0.2-0.7,0l-1.5,1.5
				c-0.2,0.2-0.2,0.5,0,0.7l5.8,5.8C463.2,203.3,463.5,203.3,463.7,203.1z"/>
		</g>
	</g>
	<g id="XMLID_49_">
		<g id="XMLID_50_">
			<path id="XMLID_90_" class="st0" d="M111.4,27.1l-10.2-14.8c-0.5-0.7-0.3-1.6,0.4-2.1l4.8-3.3c0.7-0.5,1.6-0.3,2.1,0.4l10.2,14.8
				c0.5,0.7,0.3,1.6-0.4,2.1l-4.8,3.3C112.8,28,111.8,27.8,111.4,27.1z"/>
		</g>
		<g id="XMLID_51_">
			<path id="XMLID_88_" class="st0" d="M110.5,26.5l1.2,1.7c0.2,0.2,0.5,0.3,0.7,0.1l6.8-4.7c0.2-0.2,0.3-0.5,0.1-0.7l-1.2-1.7
				c-0.2-0.2-0.5-0.3-0.7-0.1l-6.8,4.7C110.4,25.9,110.3,26.2,110.5,26.5z"/>
		</g>
		<g id="XMLID_52_">
			<path id="XMLID_86_" class="st0" d="M116.9,23.1l2,0.4c0.3,0,0.5-0.1,0.6-0.4l1.5-8.1c0-0.3-0.1-0.5-0.4-0.6l-2-0.4
				c-0.3,0-0.5,0.1-0.6,0.4l-1.5,8.1C116.4,22.8,116.6,23,116.9,23.1z"/>
		</g>
	</g>
</g>
</svg>
